<svg version="1.2" xmlns="http://www.w3.org/2000/svg" viewBox="0 0 900 900" width="900" height="900">
	<title>New Project (3)-svg</title>
	<style>
		.s0 { fill: #000000 } 
	</style>
	<path id="Path 0" fill-rule="evenodd" class="s0" d="m458 7.5c8.3 0.2 24.8 1.7 38.5 3.5 13.2 1.7 28.5 4 34 5.1 5.5 1.1 14 3.2 19 4.6 5 1.3 15.8 4.7 24 7.5 8.3 2.8 19 6.8 24 8.9 5 2.2 14.9 7.1 22 11 7.1 4 17.3 9.9 22.5 13.1 5.2 3.3 14.5 9.7 20.5 14.3 6 4.6 15.3 11.9 20.5 16.3 5.2 4.4 15.4 13.3 22.6 19.8 7.1 6.6 24 22 37.5 34.3 13.4 12.3 26.6 24.5 29.4 27 2.8 2.6 10 8.9 16 14.1 6 5.2 14.1 12.1 18 15.4 3.9 3.3 9.7 8.7 13.1 12 3.3 3.4 12.5 11.9 20.3 19.1 7.9 7.2 16.7 16.2 19.6 20 2.9 3.9 7.2 10.4 9.4 14.5 2.2 4.1 5.2 10.9 6.7 15 1.4 4.1 3.5 10.9 4.5 15 1.3 5.2 1.9 10.9 1.9 18.5 0 6.1-0.7 13.7-1.5 17-0.7 3.3-2.6 9.6-4 14-1.5 4.4-4.8 12-7.4 16.9-2.5 4.8-7.4 12.3-10.7 16.5-3.4 4.2-16.2 16.6-29 28.1-12.6 11.3-56.2 50.6-96.9 87.5-40.7 36.8-90.2 81.6-110 99.5-19.8 17.9-48.4 43.8-63.5 57.4-15.1 13.7-30.6 27.1-34.5 29.8-3.9 2.7-10.4 6.7-14.5 8.8-4.1 2-10.9 5-15 6.4-4.1 1.5-11.1 3.6-15.5 4.7-5.6 1.4-13 2.2-24.5 2.6-10.9 0.4-19.2 0.2-24.5-0.6-4.4-0.7-11.6-2.2-16-3.3-4.4-1.1-11.6-3.6-16-5.7-4.4-2.1-11.4-5.9-15.5-8.6-4.1-2.6-11.6-7.8-16.5-11.5-4.9-3.6-43.4-37.8-85.5-76-42.1-38.1-102.8-93-134.8-121.9-32.1-28.9-59.6-53.2-61-54-1.5-0.7-3.9-1.4-5.3-1.5-1.4 0-3.4 0.6-4.4 1.4-1 0.8-2.4 3-3.2 4.8-0.8 1.9-1.3 7.2-1.3 13.5 0 5.6 0.5 12.9 1 16.2 0.6 3.3 2.4 10.1 4 15 1.6 4.9 4.6 11.7 6.5 15 2 3.3 5.3 7.7 7.3 9.9 2 2.1 18.1 17.2 35.7 33.5 17.6 16.3 36.1 33.3 41 37.7 5 4.5 14.9 13.1 22.1 19 7.2 6 24.1 21.3 37.5 34 13.4 12.6 28.5 26.8 33.4 31.3 5 4.6 21.3 19 36.4 32 15.1 13 30.8 26.5 35 30 4.2 3.5 11.4 8.8 16.1 11.9 4.7 3.1 13.5 8.1 19.5 11.2 6.1 3.1 17.3 7.7 25 10.2 7.7 2.6 18.5 5.5 24 6.5 8.1 1.5 15.2 1.8 37 1.8 17.1 0 29.4-0.4 33.5-1.2 3.6-0.7 11-2.5 16.5-4.1 5.5-1.6 14.7-4.8 20.5-7.1 5.8-2.3 14.5-6.7 19.5-9.6 5-2.9 12.4-7.7 16.7-10.7 4.2-2.9 22.6-18.8 40.9-35.3 18.4-16.5 57.2-51.6 86.4-78 29.1-26.4 73.5-66.5 98.5-89 25-22.6 51.6-46.4 59-53.1 7.4-6.6 16.8-14.8 20.8-18.2 5.6-4.8 7.9-6.2 10.5-6.2 2-0.1 3.9 0.7 5.2 2.1 2 2.1 2 3.7 2.6 164.4l-3.6 12c-2 6.6-5.8 16.5-8.5 22-2.8 5.5-7 12.7-9.5 16-2.5 3.3-6.9 8.5-9.8 11.4-2.8 3-18 17.3-33.7 31.6-15.7 14.4-51 46.6-78.5 71.5-37.8 34.2-54.6 48.7-69 59.5-10.5 7.8-23.3 16.9-28.5 20.2-5.2 3.3-13.8 8.3-19 11.1-5.2 2.8-15.8 7.9-23.5 11.3-7.7 3.4-17.8 7.7-22.5 9.6-4.7 1.9-15.6 5.4-40 12.3h-164l-17.7-5.1c-9.8-2.8-23-6.8-29.3-8.9-6.3-2-18-6.6-26-10.1-8-3.6-21.5-10.4-30-15.3-8.5-4.8-21.8-13-29.5-18-12.1-8-19.9-14.6-57.5-48.6-23.9-21.6-56.1-50.9-71.5-64.9-15.4-14.1-34.5-31.7-42.4-39.1-7.9-7.4-16-14.9-17.9-16.5-2-1.6-6.3-6.6-9.5-11-3.3-4.4-8.2-12.5-10.8-18-2.7-5.5-5.4-12.5-6-15.5-0.6-3-0.9-10.8-0.7-17.3 0.3-11.5 0.4-12 3.1-14.3 2.3-2.1 3.1-2.2 5.5-1.3 1.5 0.6 5.6 3.4 9.2 6.3 3.6 3 13.7 11.8 22.5 19.6 8.8 7.9 24.3 21.4 34.5 30 10.2 8.7 20.8 18.1 23.5 21 2.8 2.9 10.4 10 17 15.8 6.6 5.9 15.8 14.1 20.5 18.3 4.7 4.3 13.4 11.9 19.5 16.9 6.1 5 17.3 14.9 25 22 7.7 7 23.2 21 34.5 31 11.3 10 23.9 20.8 28 23.8 4.1 3.1 11 7.8 15.3 10.4 4.2 2.6 13.2 7.7 20 11.3 6.7 3.5 17.4 8.6 23.7 11.3 6.3 2.7 17.6 7.1 25 9.6 7.4 2.6 23.5 7.2 58 15.6h91l12.8-3c7-1.7 18.3-4.7 25.2-6.7 6.9-1.9 17.5-5.6 23.5-8 6-2.4 19.3-8.7 29.5-13.9 10.2-5.3 22.3-12.1 26.9-15.2 4.6-3.1 12.3-9 17-13.1 4.7-4 19-16.6 31.6-27.9 12.6-11.4 47.7-43.2 78-70.7 30.2-27.5 58.9-53.8 63.6-58.5 5.8-5.7 9.7-10.5 11.7-14.5 1.6-3.3 4-9.1 5.2-13 1.7-5.3 2.3-10.5 2.8-21.5 0.5-12 0.3-15.3-1.1-19.3-0.9-2.6-2.6-5.2-3.7-5.7-1.1-0.5-3-1-4.2-1-1.3 0-3.7 0.8-5.3 1.9-1.6 1-12.7 10.5-24.5 21.1-11.8 10.6-55.4 49.9-96.8 87.4-41.5 37.5-80.2 71.8-86 76.4-5.9 4.6-15.9 11.8-22.2 16-6.3 4.3-16 10-21.5 12.9-5.5 2.8-16.1 7.4-23.5 10.1-7.4 2.8-18 6.2-23.5 7.6-5.5 1.4-15.4 3.5-22 4.7-10 1.8-16.1 2.2-37 2.2-15.6 0.1-28.6-0.4-34.5-1.2-5.2-0.7-14.9-2.3-21.5-3.6-6.6-1.3-17.6-4-24.5-6-6.9-2-17.2-5.6-23-8-5.8-2.3-13.4-5.7-17-7.5-3.6-1.8-9.9-5.3-14-7.8-4.1-2.5-11.7-7.6-16.7-11.4-5.1-3.7-21.1-17.5-35.5-30.5-14.5-13.1-60-54.4-101.3-91.7-41.3-37.4-83.1-75.4-93-84.5-9.9-9.1-21.4-19.7-25.5-23.5-4.1-3.9-9.2-9.4-11.3-12.1-2.1-2.8-5.5-8.1-7.6-12-2.1-3.9-5.3-10.6-10-23l-1.1-58.5c-0.8-46-1.3-60.1-2.5-66-1.3-5.9-1.5-12.4-0.9-52.5l3.7-12.5c2-6.9 6.2-17.4 9.2-23.5 3-6.1 7.6-13.9 10.3-17.5 2.9-4 17.6-18.2 37.8-36.6 18.1-16.5 57-51.9 86.4-78.4 29.4-26.6 58.4-52.1 64.5-56.6 6.1-4.5 16.8-11.8 24-16.3 7.1-4.6 20-11.8 28.5-16.1 8.5-4.3 21.1-10 28-12.8 6.9-2.7 18.1-6.8 25-9 6.9-2.2 18.6-5.7 26-7.6 7.4-1.9 18.2-4.4 24-5.5 5.8-1.1 20.2-3.1 32-4.5 11.8-1.4 22.9-2.7 24.5-3 1.6-0.2 9.5-0.3 17.5-0.1zm-38 55c-3.6 0.7-13.7 2.6-22.5 4-8.8 1.5-21.2 4.2-27.5 6-6.3 1.8-17.8 5.7-25.5 8.5-7.7 2.9-22.1 9.1-32 14-11.3 5.5-23.6 12.4-33 18.7-8.3 5.5-18.6 12.9-23 16.4-4.5 3.5-15 12.7-23.5 20.3-8.5 7.7-18.7 16.9-22.5 20.6-3.8 3.6-20.9 19.1-38 34.5-17 15.4-38.6 35-48 43.5-9.3 8.5-21.5 20-27.1 25.5-8.2 8.1-10.9 11.5-14.1 18-2.2 4.4-4.6 10.7-5.3 14-0.7 3.6-1 9.2-0.7 14 0.3 4.4 1.4 10.5 2.5 13.5 1.2 3 4.3 8.9 7 13 2.7 4.1 7.8 10.2 11.3 13.6 3.5 3.3 11.1 10.3 16.9 15.5 5.8 5.3 17 15.3 25 22.4 8 7.1 24.4 21.9 36.4 32.9 12 11.1 28.2 25.9 36 33 7.8 7 19.5 17.6 26.1 23.4 6.6 5.8 19.4 17.4 28.5 25.7 9.1 8.2 22.4 20.4 29.5 27 7.2 6.6 19.1 17.4 26.5 24 7.4 6.6 27 24.1 43.5 39 16.5 14.9 33.9 30.2 38.5 34.1 4.7 3.9 11 8.4 14 9.9 3 1.5 9.8 3.8 15 5.1 5.2 1.4 12.1 2.4 15.3 2.4 3.1 0 9.4-0.9 14-1.9 4.5-1.1 10-2.6 12.2-3.4 2.2-0.8 6.5-3 9.5-4.9 3-1.9 9.1-6.6 13.6-10.4 4.5-3.8 21.5-19 37.9-33.9 16.4-14.9 44.6-40.3 62.5-56.5 18-16.2 48.2-43.5 67.1-60.6 18.9-17.1 49.7-44.9 68.4-61.9 18.7-17 43-39.2 54-49.5 14.2-13.2 21.5-20.7 25.1-26 2.7-4.1 6-10.2 7.3-13.5 1.4-3.7 2.5-9.3 2.8-14.5 0.5-7.7 0.3-9.2-2.4-16-1.6-4.1-4.7-10.2-6.8-13.4-2.2-3.3-10.7-12.3-19-20.1-8.2-7.8-26.9-24.9-41.5-38.1-14.6-13.1-31.2-28.1-37-33.4-5.8-5.3-22.2-20.2-36.5-33-14.3-12.8-29.6-26.6-34-30.5-4.4-3.9-10.7-9.3-14-12-3.3-2.7-11.9-8.7-19-13.4-7.1-4.7-18-11.1-24-14.2-6-3.2-16.2-8-22.5-10.7-6.3-2.7-16.5-6.5-22.5-8.5-6-1.9-15.5-4.4-21-5.6-5.5-1.1-17.2-3.5-26-5.1-14.6-2.9-18.2-3.2-40.5-3.5-13.5-0.2-25.9-0.1-27.5 0.1-1.6 0.3-5.9 1.1-9.5 1.9zm36.5 43.1c22.1 0.5 23.8 0.6 42 4.5 10.4 2.2 23.3 5.4 28.5 7.1 5.2 1.6 14 4.8 19.5 7 5.5 2.2 14.7 6.4 20.5 9.5 5.8 3 14.8 8.3 20 11.8 5.2 3.5 14.2 10.2 20 14.8 5.8 4.7 16.2 13.6 23.1 19.9 7 6.2 25 22.5 40 36.2 15.1 13.7 31.4 28.6 36.4 33 5 4.4 17.5 16 28 25.7 10.5 9.7 22.9 21.7 27.8 26.8 6.1 6.4 8.9 10.1 9.3 12.3 0.3 1.8 0.1 5.1-0.6 7.3-0.8 2.5-3.8 6.5-7.9 10.8-3.6 3.8-9.3 8.8-12.6 11.1-3.3 2.4-7.8 4.9-10 5.6-3.2 1-4.8 1-8 0-2.2-0.7-6-2.8-8.5-4.7-2.5-1.9-26.1-23.2-52.5-47.2-26.4-24.1-54.5-49.6-62.4-56.7-8-7.1-19.4-17.3-25.5-22.8-6.1-5.4-14.8-12.8-19.4-16.5-4.5-3.6-14-10.1-21-14.4-7-4.2-17.2-9.5-22.7-11.7-5.5-2.1-13.8-5-18.5-6.3-4.7-1.4-11.9-3-16-3.7-5.2-0.8-16.9-1.1-38.5-0.7-29.5 0.4-31.4 0.6-40 3-4.9 1.4-13.9 4.3-20 6.5-6.1 2.1-14.6 5.6-19 7.7-4.4 2.1-12.1 6.3-17 9.4-4.9 3-12.6 8.4-17 12-4.4 3.5-12.3 10.3-17.5 15.1-5.2 4.8-22.4 20.1-38.1 34.1-15.7 14-35.7 31.9-44.4 39.9-8.8 8-21.8 19.9-29 26.6-7.1 6.6-16.8 15.3-21.5 19.3-4.7 4-10.8 8.4-13.5 9.8-3.7 1.9-5.9 2.4-8.5 1.9-1.9-0.3-6-2.3-9-4.3-3-2.1-9.1-7.4-13.6-11.8-5.7-5.6-8.5-9.2-9.4-12-0.7-2.4-1-5.6-0.6-8 0.6-3.4 2.5-5.7 12.9-16.1 6.7-6.6 24.6-23.2 39.7-37 15.2-13.7 37-33.5 48.5-43.9 11.5-10.4 29.5-26.7 40-36 10.5-9.3 21.3-18.8 24-21.1 2.8-2.2 8.6-6.6 13-9.7 4.4-3 15-9.1 23.5-13.5 8.5-4.5 20-9.8 25.5-12 5.5-2.2 13.6-5.1 18-6.5 4.4-1.4 18.4-4.6 31-7.1 12.6-2.5 24.1-4.7 25.5-5 1.4-0.3 12.9-0.3 25.5 0zm-4 103.7c28.1 0.4 29.3 0.5 37 3 4.4 1.4 12.1 4.5 17 6.8 4.9 2.3 12.1 6.3 16 8.9 3.9 2.6 13.5 10.5 21.5 17.5 8 7 30.7 27.4 50.5 45.4 19.8 17.9 44.5 40.4 55 50 10.4 9.6 24.4 22.5 31 28.6 6.6 6.2 12.6 12.5 13.3 14.1 0.9 1.7 1.1 4.4 0.8 6.7-0.4 2.7-2.2 5.4-6.9 10.3-3.4 3.7-9.8 9.6-14.2 13.1-4.4 3.5-9.6 6.9-11.5 7.5-3.1 1-4.2 0.8-10-2-4.1-2-10.1-6.5-16.1-12-5.3-4.8-21.7-19.7-36.5-33.2-14.8-13.5-34.8-31.7-44.4-40.5-9.6-8.7-26.5-23.9-37.5-33.7-11-9.7-22.7-19.8-26-22.3-3.3-2.5-8.8-5.9-12.3-7.5-3.4-1.7-9.5-3.9-13.5-5-4.6-1.3-10.3-2-15.7-2-4.7 0-11.2 0.7-14.5 1.6-3.3 0.8-8.3 2.5-11 3.7-2.8 1.2-7.5 3.6-10.5 5.4-3 1.8-10.5 7.7-16.6 13-6.1 5.4-19.1 17.1-29 25.9-9.8 8.9-27.6 24.8-39.4 35.4-11.8 10.6-30.9 27.9-42.5 38.5-11.6 10.5-24.6 22.1-29 25.8-4.4 3.7-9.6 7.3-11.5 7.8-1.9 0.6-5 0.8-6.8 0.5-1.8-0.3-6.4-3.2-10.5-6.4-3.9-3.2-10.1-8.5-13.6-11.8-3.5-3.2-7.2-7.6-8.2-9.6-1.1-2.1-1.9-4.5-1.9-5.3 0-0.8 0.8-3.2 1.9-5.2 1.1-2.3 9.6-11 21.2-21.8 10.7-9.9 35.8-32.9 55.8-51 20.1-18.2 46-41.5 57.5-51.9 11.6-10.4 24.7-21.6 29.1-24.8 4.4-3.3 13.9-8.8 21-12.4 7.8-3.8 16.8-7.4 22.5-8.9 9.3-2.4 10.2-2.5 38.5-2.2z"/>
</svg>